<?xml version="1.0" encoding="UTF-8"?>
<svg version="1.1" xmlns="http://www.w3.org/2000/svg" width="225" height="225">
<path d="M0 0 C74.25 0 148.5 0 225 0 C225 74.25 225 148.5 225 225 C150.75 225 76.5 225 0 225 C0 150.75 0 76.5 0 0 Z " fill="#010101" transform="translate(0,0)"/>
<path d="M0 0 C1.40958984 0.41765625 1.40958984 0.41765625 2.84765625 0.84375 C14.06306386 4.50334855 24.70376976 10.7911315 30.3125 21.5078125 C31.28043646 23.65206064 32.17861685 25.79604023 33 28 C31.515 27.505 31.515 27.505 30 27 C30 26.34 30 25.68 30 25 C28.68 25.33 27.36 25.66 26 26 C23.69 23.36 21.38 20.72 19 18 C19.495 18.99 19.495 18.99 20 20 C20.58394161 27.24087591 20.58394161 27.24087591 18.125 30.4375 C13.35956891 33.94149345 8.7474359 33.48719051 3 33 C-5.3644793 31.32068638 -12.81460173 27.84527883 -20.26831055 23.81835938 C-24.78063982 21.42040838 -28.99867081 20.07686777 -34 19 C-31.69 19.99 -29.38 20.98 -27 22 C-27.33 22.66 -27.66 23.32 -28 24 C-29.88598633 24.5625 -29.88598633 24.5625 -32.33203125 25 C-33.65364258 25.2475 -33.65364258 25.2475 -35.00195312 25.5 C-36.39317383 25.7475 -36.39317383 25.7475 -37.8125 26 C-39.63250094 26.32788194 -41.45156201 26.66103414 -43.26953125 27 C-44.08010986 27.144375 -44.89068848 27.28875 -45.72583008 27.4375 C-48.04299235 28.01063386 -49.91442178 28.85279754 -52 30 C-51.49984375 29.84789062 -50.9996875 29.69578125 -50.484375 29.5390625 C-44.34257662 28.20640813 -38.18899967 28.0176191 -32 29 C-29.17582855 31.03603058 -27.52573805 32.9691239 -25.578125 35.8359375 C-23.84257766 38.21587123 -22.75574534 39.03444529 -20 40 C-14.33826614 40.62789906 -8.60467845 39.81522596 -3 39 C-6.70067031 43.26137794 -9.44935017 44.94729055 -15 46 C-17.33215844 46.07403678 -19.66860788 46.09515886 -22 46 C-22 46.66 -22 47.32 -22 48 C-20.8553125 48.185625 -20.8553125 48.185625 -19.6875 48.375 C-17 49 -17 49 -14 51 C-14 51.66 -14 52.32 -14 53 C-13.24976562 53.12117188 -12.49953125 53.24234375 -11.7265625 53.3671875 C7.76995565 56.55931264 7.76995565 56.55931264 13 59 C13 59.33 13 59.66 13 60 C12.06800781 60.09796875 11.13601562 60.1959375 10.17578125 60.296875 C-10.31826857 62.70062604 -27.09916142 69.64538027 -40.46826172 85.77099609 C-45.6369727 92.41493959 -50.21704091 99.47390244 -54 107 C-54.33 107 -54.66 107 -55 107 C-55.77190994 95.91451564 -52.81433028 87.34445937 -47 78 C-57.08338533 83.19447123 -62.98130488 92.68572866 -67 103 C-68.78708819 108.90198539 -69.94331508 114.93101357 -71 121 C-75.57490447 114.1376433 -74.57336327 103.96248146 -74 96 C-72.30159139 87.82822829 -68.67921459 80.84705325 -64 74 C-63.58363281 73.31679687 -63.16726562 72.63359375 -62.73828125 71.9296875 C-59.03127106 66.60851371 -54.73700081 65.82853701 -48.546875 64.6875 C-42.89411455 63.59181075 -37.4737759 61.76486719 -32 60 C-32.80824219 60.144375 -33.61648437 60.28875 -34.44921875 60.4375 C-35.51785156 60.623125 -36.58648437 60.80875 -37.6875 61 C-38.74324219 61.185625 -39.79898438 61.37125 -40.88671875 61.5625 C-43.64904062 61.95068074 -46.21742043 62.08259976 -49 62 C-48.01 60.68 -47.02 59.36 -46 58 C-61.6477515 61.78574633 -76.22536812 70.00404472 -86.1875 82.8125 C-87.0846875 83.8953125 -87.0846875 83.8953125 -88 85 C-88.66 85 -89.32 85 -90 85 C-88.22298551 75.04871884 -82.82127402 69.10892408 -75 63 C-80.60120371 65.04471126 -85.56677932 66.86232737 -90 71 C-90.66 70.67 -91.32 70.34 -92 70 C-89.32134512 64.12975632 -86.93912821 59.23353847 -82 55 C-84.31 55.66 -86.62 56.32 -89 57 C-87.02 54.69 -85.04 52.38 -83 50 C-84.485 50.495 -84.485 50.495 -86 51 C-86.66 50.67 -87.32 50.34 -88 50 C-81.51837978 42.16370031 -74.54898729 35.54396306 -66 30 C-67.10859375 30.27714844 -68.2171875 30.55429688 -69.359375 30.83984375 C-70.41511719 31.1037793 -70.41511719 31.1037793 -71.4921875 31.37304688 C-72.23726562 31.55931641 -72.98234375 31.74558594 -73.75 31.9375 C-75.85904948 32.46476237 -77.96809896 32.99202474 -80.07714844 33.51928711 C-80.71168945 33.67792236 -81.34623047 33.83655762 -82 34 C-82.74024414 34.18506104 -83.48048828 34.37012207 -84.24316406 34.56079102 C-84.82291992 34.70572998 -85.40267578 34.85066895 -86 35 C-82.39299028 30.76568424 -77.85413839 28.5307901 -73 26 C-75.97 26.33 -78.94 26.66 -82 27 C-78.55355464 22.98664587 -74.62511043 21.09433671 -69.9375 18.875 C-68.50828229 18.18662119 -67.07986479 17.49657792 -65.65234375 16.8046875 C-65.02320068 16.50546387 -64.39405762 16.20624023 -63.74584961 15.89794922 C-61.73786709 14.90664921 -61.73786709 14.90664921 -59 13 C-64.445 12.505 -64.445 12.505 -70 12 C-67.82276258 9.82276258 -66.99514021 9.58100154 -64.0859375 8.9296875 C-63.32539062 8.75566406 -62.56484375 8.58164062 -61.78125 8.40234375 C-60.9871875 8.22832031 -60.193125 8.05429687 -59.375 7.875 C-58.57320312 7.69324219 -57.77140625 7.51148438 -56.9453125 7.32421875 C-54.96500524 6.87629211 -52.9826823 6.43729396 -51 6 C-52.98 5.34 -54.96 4.68 -57 4 C-54.32107971 1.32107971 -51.37843412 0.84362625 -47.8125 -0.0625 C-47.16474609 -0.23587891 -46.51699219 -0.40925781 -45.84960938 -0.58789062 C-31.03486593 -4.45067588 -14.63836241 -4.60800553 0 0 Z " fill="#F6F6F6" transform="translate(134,43)"/>
<path d="M0 0 C-0.556875 0.2475 -1.11375 0.495 -1.6875 0.75 C-7.75243749 4.02834459 -10.56963905 7.98144964 -13.5625 14 C-13.90861328 14.68835938 -14.25472656 15.37671875 -14.61132812 16.0859375 C-16.54378515 20.21167396 -17.39929664 23.35363909 -17 28 C-16.34 28 -15.68 28 -15 28 C-14.505 30.97 -14.505 30.97 -14 34 C-13.67128906 32.45892578 -13.67128906 32.45892578 -13.3359375 30.88671875 C-11.39668608 22.25402311 -9.1808905 14.3568645 -4 7 C-3.34 6.67 -2.68 6.34 -2 6 C-2.268125 6.639375 -2.53625 7.27875 -2.8125 7.9375 C-3.204375 8.948125 -3.59625 9.95875 -4 11 C-4.39638672 11.98226562 -4.39638672 11.98226562 -4.80078125 12.984375 C-7.43542243 20.02673341 -8.50694017 27.02289369 -5.5 34.125 C-5.005 35.07375 -4.51 36.0225 -4 37 C-4.99 37 -5.98 37 -7 37 C-4.34151874 42.00099548 -1.74123976 46.7045025 2 51 C0.68 50.34 -0.64 49.68 -2 49 C-0.81819916 54.02265357 0.44992282 57.0949151 4 61 C-0.17004797 59.60501079 -2.837108 57.6536642 -6.0625 54.6875 C-6.89910156 53.92824219 -7.73570312 53.16898438 -8.59765625 52.38671875 C-12.39389948 48.61516654 -15.34892916 44.63937398 -18 40 C-18.66 42.97 -19.32 45.94 -20 49 C-22.95183101 46.04816899 -23.08663988 43.04488053 -24 39 C-24.33693273 45.96327638 -23.3030887 51.43345544 -21 58 C-28.46619458 54.60627519 -33.33789965 46.64537253 -36.34765625 39.26953125 C-37.65970851 34.70484645 -37.95625992 30.11326142 -35.9765625 25.73828125 C-35.65429688 25.16464844 -35.33203125 24.59101563 -35 24 C-41.20584581 30.20584581 -43.08929288 38.21492965 -43.3125 46.6875 C-43.23263377 53.46160866 -41.98618028 59.5449141 -40 66 C-43.40518414 62.97962345 -45.01704748 60.21565305 -46.6875 56 C-47.10386719 54.96875 -47.52023438 53.9375 -47.94921875 52.875 C-51.02152461 44.46898843 -51.54661692 34.21936155 -48.5625 25.6875 C-44.38420027 16.84539388 -36.70617102 9.38569289 -28 5 C-24.4375 4.125 -24.4375 4.125 -22 4 C-22.268125 4.515625 -22.53625 5.03125 -22.8125 5.5625 C-24.32349407 8.66401415 -25.65572726 11.82262806 -27 15 C-26.62230469 14.57589844 -26.24460937 14.15179688 -25.85546875 13.71484375 C-20.09846501 7.58033157 -9.00384286 -3.00128095 0 0 Z " fill="#F3F3F3" transform="translate(145,107)"/>
<path d="M0 0 C2.8125 0.6875 2.8125 0.6875 5.8125 2.6875 C6.92625 2.8421875 6.92625 2.8421875 8.0625 3 C12.75208434 4.17239608 16.45885494 6.6021549 19.11328125 10.69140625 C23.43707233 19.22892827 24.00139207 26.60021436 21.1875 35.8125 C18.88102737 42.13696206 16.08253974 47.98139231 9.9375 51.1875 C8.885625 51.435 8.885625 51.435 7.8125 51.6875 C8.28816406 50.62982422 8.28816406 50.62982422 8.7734375 49.55078125 C9.85788286 46.56244121 10.2089359 44.03680342 10.4375 40.875 C10.51226562 39.89917969 10.58703125 38.92335937 10.6640625 37.91796875 C10.71304688 37.18191406 10.76203125 36.44585937 10.8125 35.6875 C9.719375 35.77 8.62625 35.8525 7.5 35.9375 C-0.37728643 35.90981182 -7.20397848 32.25592934 -13.9375 28.5 C-19.9375089 25.35078067 -25.31480019 25.04454563 -31.9375 25.0859375 C-35.1875 24.6875 -35.1875 24.6875 -39.1875 20.6875 C-33.9075 20.6875 -28.6275 20.6875 -23.1875 20.6875 C-28.1375 20.3575 -33.0875 20.0275 -38.1875 19.6875 C-34.52036823 17.85393412 -33.43993203 17.4289945 -29.625 17.5 C-28.86058594 17.50644531 -28.09617188 17.51289062 -27.30859375 17.51953125 C-25.1875 17.6875 -25.1875 17.6875 -22.1875 18.6875 C-22.1875 18.0275 -22.1875 17.3675 -22.1875 16.6875 C-21.23875 16.44 -20.29 16.1925 -19.3125 15.9375 C-16.10056809 15.0017923 -16.10056809 15.0017923 -14.8125 12.5625 C-14.503125 11.634375 -14.503125 11.634375 -14.1875 10.6875 C-12.0355563 13.91541555 -11.98663557 14.97150809 -12.1875 18.6875 C-12.04054687 18.14222656 -11.89359375 17.59695312 -11.7421875 17.03515625 C-7.13291743 1.53847239 -7.13291743 1.53847239 0 0 Z " fill="#F7F7F7" transform="translate(160.1875,71.3125)"/>
<path d="M0 0 C2.22984785 1.76529621 2.93915901 2.65233722 3.4375 5.5 C3 8 3 8 0.97265625 9.65625 C0.32167969 10.0996875 -0.32929688 10.543125 -1 11 C7.27641132 14.07048168 7.27641132 14.07048168 15.9375 15.5 C20.01328503 15.82547104 22.20803473 16.85903907 25 20 C25.8125 22.75 25.8125 22.75 26 25 C16.62501662 25.70754592 9.32502706 22.31671536 1.25 17.8125 C-4.7500089 14.66328067 -10.12730019 14.35704563 -16.75 14.3984375 C-20 14 -20 14 -24 10 C-18.72 10 -13.44 10 -8 10 C-12.95 9.67 -17.9 9.34 -23 9 C-19.33286823 7.16643412 -18.25243203 6.7414945 -14.4375 6.8125 C-13.67308594 6.81894531 -12.90867188 6.82539062 -12.12109375 6.83203125 C-10 7 -10 7 -7 8 C-7 7.34 -7 6.68 -7 6 C-5.5459375 5.62875 -5.5459375 5.62875 -4.0625 5.25 C-3.051875 4.8375 -2.04125 4.425 -1 4 C-0.03122943 1.96756452 -0.03122943 1.96756452 0 0 Z " fill="#262626" transform="translate(145,82)"/>
<path d="M0 0 C2.875 0.38671875 2.875 0.38671875 4.875 1.38671875 C5.30169527 5.73901047 5.38564497 7.71558536 2.6875 11.26171875 C-0.14367411 13.40082808 -1.69478918 13.91030058 -5.125 14.38671875 C-5.455 15.04671875 -5.785 15.70671875 -6.125 16.38671875 C-6.785 16.38671875 -7.445 16.38671875 -8.125 16.38671875 C-9.3125 14.25 -9.3125 14.25 -10.125 11.38671875 C-9 8.4921875 -9 8.4921875 -7.125 5.57421875 C-6.526875 4.59839844 -5.92875 3.62257813 -5.3125 2.6171875 C-3.125 0.38671875 -3.125 0.38671875 0 0 Z " fill="#E9E9E9" transform="translate(160.125,71.61328125)"/>
<path d="M0 0 C0.68578125 0.15726562 1.3715625 0.31453125 2.078125 0.4765625 C5.31944207 1.05722625 8.46127112 1.22152599 11.75 1.375 C18.56436271 1.83166933 24.60465548 2.74391984 30.36328125 6.5703125 C34.26224023 8.6844147 37.89893264 8.4633097 42.2578125 8.59375 C45 9 45 9 46.8671875 10.34375 C48 12 48 12 48 15 C40.53805493 14.75768464 35.3146413 13.04930567 28.8125 9.5 C21.29439489 5.62264906 15.43972974 4.04294983 7.00390625 4.29296875 C4 4 4 4 1.58984375 1.98828125 C0.80287109 1.00408203 0.80287109 1.00408203 0 0 Z " fill="#EBEBEB" transform="translate(121,92)"/>
<path d="M0 0 C3 1 3 1 4.1875 3.0625 C4.455625 3.701875 4.72375 4.34125 5 5 C8.62885324 5.15149298 8.62885324 5.15149298 12 4 C12.66 4.33 13.32 4.66 14 5 C13 8 13 8 10 10 C10.33 10.66 10.66 11.32 11 12 C4.32029902 12.83496262 4.32029902 12.83496262 0.7578125 10.58203125 C-2.64141141 7.66218507 -5.18469051 5.14403984 -7 1 C-3.63408134 2.44253657 -1.48952921 4.33264727 1 7 C0.67 4.69 0.34 2.38 0 0 Z " fill="#EFEFEF" transform="translate(113,70)"/>
<path d="M0 0 C0.99 0.33 1.98 0.66 3 1 C2.56429687 1.37769531 2.12859375 1.75539063 1.6796875 2.14453125 C-6.05919132 9.29713137 -10.30334953 17.65043214 -12 28 C-14 26 -14 26 -14.375 22.375 C-14.1169641 13.96606549 -8.761875 7.6950319 -3 2 C-2.01 1.34 -1.02 0.68 0 0 Z " fill="#DEDEDE" transform="translate(61,117)"/>
<path d="M0 0 C1.5 1.1875 1.5 1.1875 3 3 C3.1875 5.6875 3.1875 5.6875 3 8 C2.195625 8.144375 1.39125 8.28875 0.5625 8.4375 C-1.92103706 8.74135249 -1.92103706 8.74135249 -3 10 C-4.4913391 10.01662231 -5.98360805 9.963192 -7.47265625 9.87890625 C-8.37177734 9.83056641 -9.27089844 9.78222656 -10.19726562 9.73242188 C-11.14279297 9.67634766 -12.08832031 9.62027344 -13.0625 9.5625 C-14.01189453 9.51029297 -14.96128906 9.45808594 -15.93945312 9.40429688 C-18.29326952 9.27418642 -20.64670699 9.13920888 -23 9 C-19.93624392 7.37578683 -17.92639591 6.74756285 -14.4375 6.8125 C-13.67308594 6.81894531 -12.90867188 6.82539062 -12.12109375 6.83203125 C-10 7 -10 7 -7 8 C-7 7.34 -7 6.68 -7 6 C-5.5459375 5.62875 -5.5459375 5.62875 -4.0625 5.25 C-3.051875 4.8375 -2.04125 4.425 -1 4 C-0.03122943 1.96756452 -0.03122943 1.96756452 0 0 Z " fill="#E3E3E3" transform="translate(145,82)"/>
<path d="M0 0 C-3.09625353 2.06416902 -6.1983335 3.53708387 -9.5625 5.125 C-15.30019654 7.90481376 -20.14555464 11.13796187 -25.01171875 15.30078125 C-27 17 -27 17 -30 19 C-26.31198438 10.23600588 -16.98343838 5.04714698 -8.859375 0.99609375 C-5.73419148 -0.09259723 -3.28540317 -0.18954249 0 0 Z " fill="#232323" transform="translate(125,101)"/>
<path d="M0 0 C0.33 0 0.66 0 1 0 C1.02578125 0.85980469 1.0515625 1.71960938 1.078125 2.60546875 C1.45059814 10.36814768 2.63933835 17.03277034 5.2578125 24.35546875 C6 27 6 27 5 30 C4.18501438 28.3970947 3.37310073 26.79262722 2.5625 25.1875 C2.11003906 24.29417969 1.65757813 23.40085938 1.19140625 22.48046875 C-0.94257829 18.0375829 -1.15244651 14.27265983 -1.125 9.4375 C-1.12886719 8.75236328 -1.13273437 8.06722656 -1.13671875 7.36132812 C-1.12669335 2.2533867 -1.12669335 2.2533867 0 0 Z " fill="#E0E0E0" transform="translate(89,151)"/>
<path d="M0 0 C-1.05058594 0.51949219 -2.10117188 1.03898437 -3.18359375 1.57421875 C-10.54615842 5.22745322 -17.880028 8.8862384 -25 13 C-22.77535601 7.21592562 -17.19339752 4.8396047 -12 2 C-4.2377892 -1.4125964 -4.2377892 -1.4125964 0 0 Z " fill="#161616" transform="translate(83,88)"/>
<path d="M0 0 C2.50845207 1.03798017 3.80048572 1.69597823 5.3125 4 C7.4770835 6.56543229 8.91625815 6.74019608 12.1875 7.25 C13.08855469 7.39953125 13.98960938 7.5490625 14.91796875 7.703125 C15.60503906 7.80109375 16.29210937 7.8990625 17 8 C17.33 8.99 17.66 9.98 18 11 C11.32029902 11.83496262 11.32029902 11.83496262 7.7578125 9.58203125 C4.35858859 6.66218507 1.81530949 4.14403984 0 0 Z " fill="#B7B7B7" transform="translate(106,71)"/>
<path d="M0 0 C0.33 0.99 0.66 1.98 1 3 C-2.82180842 7.4008703 -5.47371099 8.80805531 -11 10 C-10.6875 7.625 -10.6875 7.625 -10 5 C-7 3 -7 3 -3.8125 3.375 C-2.884375 3.58125 -1.95625 3.7875 -1 4 C-0.67 2.68 -0.34 1.36 0 0 Z " fill="#1B1B1B" transform="translate(164,77)"/>
<path d="M0 0 C1.01900391 0.23396484 1.01900391 0.23396484 2.05859375 0.47265625 C6.58354825 1.28390307 11.13665338 1.39105945 15.72265625 1.62109375 C18.77528689 1.97402006 20.36713046 2.56808849 23 4 C19.91698584 4.11644156 16.83453877 4.18732432 13.75 4.25 C12.44095703 4.30027344 12.44095703 4.30027344 11.10546875 4.3515625 C4.58401668 4.45112665 4.58401668 4.45112665 1.390625 1.984375 C0.93171875 1.32953125 0.4728125 0.6746875 0 0 Z " fill="#EEEEEE" transform="translate(121,92)"/>
<path d="M0 0 C0.33 0.66 0.66 1.32 1 2 C0.401875 3.11375 -0.19625 4.2275 -0.8125 5.375 C-3.61833949 10.63716263 -4.25832877 16.1447008 -5 22 C-5.33 22 -5.66 22 -6 22 C-6.144375 21.21625 -6.28875 20.4325 -6.4375 19.625 C-6.87798925 17.03578982 -6.87798925 17.03578982 -8 15 C-6.94768851 12.5749805 -5.84614846 10.27492731 -4.625 7.9375 C-4.295 7.28716797 -3.965 6.63683594 -3.625 5.96679688 C-1.16836021 1.16836021 -1.16836021 1.16836021 0 0 Z " fill="#C1C1C1" transform="translate(142,113)"/>
<path d="M0 0 C6.11774896 -0.49940808 9.02495953 0.75099398 14 4 C14 4.99 14 5.98 14 7 C9.25981099 5.16508812 4.63586749 3.08058541 0 1 C0 0.67 0 0.34 0 0 Z " fill="#DEDEDE" transform="translate(140,96)"/>
<path d="M0 0 C1.45879493 2.79655447 2.65385052 5.58256419 3.6875 8.5625 C3.95949219 9.32691406 4.23148437 10.09132812 4.51171875 10.87890625 C5 13 5 13 4 16 C-1.05908096 7.14223195 -1.05908096 7.14223195 -0.8125 2.375 C-0.544375 1.59125 -0.27625 0.8075 0 0 Z " fill="#C1C1C1" transform="translate(90,165)"/>
<path d="M0 0 C0.99 0.33 1.98 0.66 3 1 C1.92130607 1.96355244 0.83681257 2.92061417 -0.25 3.875 C-0.85328125 4.40867187 -1.4565625 4.94234375 -2.078125 5.4921875 C-3.97418746 6.9797487 -5.81290005 8.00322436 -8 9 C-6.40758592 4.70048197 -3.64459275 2.60328053 0 0 Z " fill="#CFCFCF" transform="translate(61,117)"/>
<path d="M0 0 C0.66 0.33 1.32 0.66 2 1 C2 1.66 2 2.32 2 3 C-0.97 4.65 -3.94 6.3 -7 8 C-6.01347016 4.68167234 -5.31268497 3.23451373 -2.5 1.125 C-1.675 0.75375 -0.85 0.3825 0 0 Z " fill="#151515" transform="translate(115,110)"/>
<path d="M0 0 C2.82567672 0.18230172 3.80752686 0.79377878 5.75 2.875 C7 5 7 5 7 8 C6.34 8 5.68 8 5 8 C4.67 6.35 4.34 4.7 4 3 C1.03 2.505 1.03 2.505 -2 2 C-1.34 1.34 -0.68 0.68 0 0 Z " fill="#343434" transform="translate(164,99)"/>
</svg>
